<svg width="25" height="25" viewBox="0 0 25 25" fill="none" xmlns="http://www.w3.org/2000/svg">
<path d="M23.2192 16.0796L25.0072 14.2916L23.2192 12.5036L18.7554 16.9674L8.03981 6.2518L12.5036 1.78801L10.7156 0L8.92757 1.78801L7.13955 0L4.46378 2.67577L2.67577 0.887755L0.887755 2.67577L2.67577 4.46378L0 7.13955L1.78801 8.92757L0 10.7156L1.78801 12.5036L6.2518 8.03981L16.9674 18.7554L12.5036 23.2192L14.2916 25.0072L16.0796 23.2192L17.8676 25.0072L20.5434 22.3314L22.3314 24.1194L24.1194 22.3314L22.3314 20.5434L25.0072 17.8676L23.2192 16.0796Z" fill="white"/>
</svg>
