<svg width="25" height="26" viewBox="0 0 25 26" fill="none" xmlns="http://www.w3.org/2000/svg">
<g clip-path="url(#clip0_1035_1078)">
<path fill-rule="evenodd" clip-rule="evenodd" d="M16.9642 9.6294C17.037 9.70217 17.0947 9.78861 17.1341 9.88379C17.1735 9.97896 17.1938 10.081 17.1938 10.184C17.1938 10.2871 17.1735 10.3891 17.1341 10.4843C17.0947 10.5795 17.037 10.6659 16.9642 10.7387L12.2754 15.439C12.2028 15.512 12.1166 15.5698 12.0216 15.6093C11.9267 15.6488 11.8249 15.6691 11.7221 15.6691C11.6193 15.6691 11.5175 15.6488 11.4226 15.6093C11.3276 15.5698 11.2414 15.512 11.1688 15.439L8.82439 13.0888C8.75173 13.016 8.6941 12.9295 8.65478 12.8344C8.61545 12.7392 8.59521 12.6372 8.59521 12.5342C8.59521 12.4312 8.61545 12.3292 8.65478 12.234C8.6941 12.1389 8.75173 12.0524 8.82439 11.9796C8.89705 11.9067 8.98331 11.8489 9.07824 11.8095C9.17317 11.7701 9.27492 11.7498 9.37768 11.7498C9.48043 11.7498 9.58218 11.7701 9.67711 11.8095C9.77204 11.8489 9.8583 11.9067 9.93096 11.9796L11.7221 13.7766L15.8577 9.6294C15.9303 9.55644 16.0165 9.49856 16.1114 9.45907C16.2064 9.41957 16.3082 9.39925 16.4109 9.39925C16.5137 9.39925 16.6155 9.41957 16.7105 9.45907C16.8054 9.49856 16.8916 9.55644 16.9642 9.6294Z" fill="white"/>
<path d="M4.68883 0H20.3183C21.1474 0 21.9424 0.330141 22.5287 0.917796C23.1149 1.50545 23.4442 2.30248 23.4442 3.13355V21.9349C23.4442 22.7659 23.1149 23.563 22.5287 24.1506C21.9424 24.7383 21.1474 25.0684 20.3183 25.0684H4.68883C3.85979 25.0684 3.0647 24.7383 2.47848 24.1506C1.89226 23.563 1.56293 22.7659 1.56293 21.9349V20.3681H3.12588V21.9349C3.12588 22.3504 3.29054 22.7489 3.58365 23.0427C3.87676 23.3366 4.27431 23.5016 4.68883 23.5016H20.3183C20.7328 23.5016 21.1304 23.3366 21.4235 23.0427C21.7166 22.7489 21.8813 22.3504 21.8813 21.9349V3.13355C21.8813 2.71802 21.7166 2.3195 21.4235 2.02567C21.1304 1.73185 20.7328 1.56678 20.3183 1.56678H4.68883C4.27431 1.56678 3.87676 1.73185 3.58365 2.02567C3.29054 2.3195 3.12588 2.71802 3.12588 3.13355V4.70033H1.56293V3.13355C1.56293 2.30248 1.89226 1.50545 2.47848 0.917796C3.0647 0.330141 3.85979 0 4.68883 0V0Z" fill="white"/>
<path d="M1.56295 7.83388V7.05049C1.56295 6.84273 1.64528 6.64347 1.79184 6.49655C1.93839 6.34964 2.13716 6.26711 2.34442 6.26711C2.55168 6.26711 2.75045 6.34964 2.89701 6.49655C3.04356 6.64347 3.1259 6.84273 3.1259 7.05049V7.83388H3.90737C4.11463 7.83388 4.3134 7.91642 4.45996 8.06333C4.60651 8.21024 4.68885 8.4095 4.68885 8.61727C4.68885 8.82504 4.60651 9.02429 4.45996 9.17121C4.3134 9.31812 4.11463 9.40066 3.90737 9.40066H0.781475C0.574215 9.40066 0.375443 9.31812 0.228889 9.17121C0.0823337 9.02429 0 8.82504 0 8.61727C0 8.4095 0.0823337 8.21024 0.228889 8.06333C0.375443 7.91642 0.574215 7.83388 0.781475 7.83388H1.56295ZM1.56295 12.5342V11.7508C1.56295 11.5431 1.64528 11.3438 1.79184 11.1969C1.93839 11.05 2.13716 10.9674 2.34442 10.9674C2.55168 10.9674 2.75045 11.05 2.89701 11.1969C3.04356 11.3438 3.1259 11.5431 3.1259 11.7508V12.5342H3.90737C4.11463 12.5342 4.3134 12.6167 4.45996 12.7637C4.60651 12.9106 4.68885 13.1098 4.68885 13.3176C4.68885 13.5254 4.60651 13.7246 4.45996 13.8715C4.3134 14.0184 4.11463 14.101 3.90737 14.101H0.781475C0.574215 14.101 0.375443 14.0184 0.228889 13.8715C0.0823337 13.7246 0 13.5254 0 13.3176C0 13.1098 0.0823337 12.9106 0.228889 12.7637C0.375443 12.6167 0.574215 12.5342 0.781475 12.5342H1.56295ZM1.56295 17.2345V16.4511C1.56295 16.2434 1.64528 16.0441 1.79184 15.8972C1.93839 15.7503 2.13716 15.6678 2.34442 15.6678C2.55168 15.6678 2.75045 15.7503 2.89701 15.8972C3.04356 16.0441 3.1259 16.2434 3.1259 16.4511V17.2345H3.90737C4.11463 17.2345 4.3134 17.3171 4.45996 17.464C4.60651 17.6109 4.68885 17.8102 4.68885 18.0179C4.68885 18.2257 4.60651 18.4249 4.45996 18.5719C4.3134 18.7188 4.11463 18.8013 3.90737 18.8013H0.781475C0.574215 18.8013 0.375443 18.7188 0.228889 18.5719C0.0823337 18.4249 0 18.2257 0 18.0179C0 17.8102 0.0823337 17.6109 0.228889 17.464C0.375443 17.3171 0.574215 17.2345 0.781475 17.2345H1.56295Z" fill="white"/>
</g>
<defs>
<clipPath id="clip0_1035_1078">
<rect width="25.0072" height="25.0684" fill="white"/>
</clipPath>
</defs>
</svg>
