<svg width="26" height="26" viewBox="0 0 26 26" fill="none" xmlns="http://www.w3.org/2000/svg">
<path id="Vector" d="M3.64104 0.163528C2.812 0.163528 2.01691 0.540832 1.43069 1.21244C0.844472 1.88404 0.515137 2.79494 0.515137 3.74473L0.515137 21.6507C0.515137 22.6005 0.844472 23.5114 1.43069 24.183C2.01691 24.8546 2.812 25.2319 3.64104 25.2319H22.3964C23.2255 25.2319 24.0205 24.8546 24.6068 24.183C25.193 23.5114 25.5223 22.6005 25.5223 21.6507V3.74473C25.5223 2.79494 25.193 1.88404 24.6068 1.21244C24.0205 0.540832 23.2255 0.163528 22.3964 0.163528H3.64104ZM22.3964 1.95413C22.8109 1.95413 23.2085 2.14278 23.5016 2.47858C23.7947 2.81439 23.9594 3.26983 23.9594 3.74473V7.32593H2.07809V3.74473C2.07809 3.26983 2.24275 2.81439 2.53586 2.47858C2.82897 2.14278 3.22652 1.95413 3.64104 1.95413H22.3964ZM2.07809 21.6507V9.11653H8.32988V23.4413H3.64104C3.22652 23.4413 2.82897 23.2527 2.53586 22.9169C2.24275 22.5811 2.07809 22.1256 2.07809 21.6507ZM9.89283 23.4413V9.11653H23.9594V21.6507C23.9594 22.1256 23.7947 22.5811 23.5016 22.9169C23.2085 23.2527 22.8109 23.4413 22.3964 23.4413H9.89283Z" fill="#0E0E0E"/>
</svg>
